<svg width="31" height="31" viewBox="0 0 31 31" fill="none" xmlns="http://www.w3.org/2000/svg">
<g clip-path="url(#clip0)" filter="url(#filter0_d)">
<path d="M23.6317 3.36826C21.4597 1.19622 18.5717 0 15.5 0C12.4281 0 9.54031 1.19622 7.36826 3.36826C5.19622 5.54031 4 8.42812 4 11.5C4 14.5717 5.19622 17.4597 7.36826 19.6317C9.54031 21.8038 12.4281 23 15.5 23C18.5717 23 21.4597 21.8038 23.6317 19.6317C25.8038 17.4597 27 14.5717 27 11.5C27 8.42812 25.8038 5.54031 23.6317 3.36826Z" fill="#DADADA"/>
<path d="M23.6317 3.36826C21.4597 1.19622 18.5717 0 15.5 0V23C18.5717 23 21.4597 21.8038 23.6317 19.6317C25.8038 17.4597 27 14.5717 27 11.5C27 8.42812 25.8038 5.54031 23.6317 3.36826Z" fill="#00B6AF"/>
<path d="M20.3091 15.5649C19.6897 15.0044 18.9847 14.5621 18.2266 14.2506C19.5967 13.3569 20.5043 11.8108 20.5043 10.0565C20.5043 7.29717 18.2592 5.05231 15.4999 5.05231C12.7405 5.05231 10.4956 7.29717 10.4956 10.0565C10.4956 11.8108 11.403 13.3569 12.7731 14.2506C12.0151 14.5621 11.31 15.0044 10.6906 15.5649C9.68091 16.4784 8.96023 17.648 8.59717 18.9372C10.41 20.6209 12.8365 21.6523 15.4999 21.6523C18.1632 21.6523 20.5897 20.6209 22.4026 18.9372C22.0395 17.648 21.3188 16.4784 20.3091 15.5649Z" fill="#E1F9F9"/>
<path d="M20.3093 15.5649C19.6898 15.0044 18.9848 14.5621 18.2267 14.2506C19.5968 13.3569 20.5044 11.8108 20.5044 10.0565C20.5044 7.29717 18.2594 5.05231 15.5 5.05231V21.6523C18.1634 21.6523 20.59 20.6209 22.4027 18.9372C22.0396 17.648 21.319 16.4784 20.3093 15.5649Z" fill="white"/>
</g>
<defs>
<filter id="filter0_d" x="0" y="0" width="31" height="31" filterUnits="userSpaceOnUse" color-interpolation-filters="sRGB">
<feFlood flood-opacity="0" result="BackgroundImageFix"/>
<feColorMatrix in="SourceAlpha" type="matrix" values="0 0 0 0 0 0 0 0 0 0 0 0 0 0 0 0 0 0 127 0"/>
<feOffset dy="4"/>
<feGaussianBlur stdDeviation="2"/>
<feColorMatrix type="matrix" values="0 0 0 0 0 0 0 0 0 0 0 0 0 0 0 0 0 0 0.25 0"/>
<feBlend mode="normal" in2="BackgroundImageFix" result="effect1_dropShadow"/>
<feBlend mode="normal" in="SourceGraphic" in2="effect1_dropShadow" result="shape"/>
</filter>
<clipPath id="clip0">
<rect width="23" height="23" fill="white" transform="translate(4)"/>
</clipPath>
</defs>
</svg>
