<svg width="69" height="69" viewBox="0 0 69 69" fill="none" xmlns="http://www.w3.org/2000/svg">
<g clip-path="url(#clip0)">
<path d="M34.5 0C33.8649 0 33.35 0.514917 33.35 1.15V5.75C33.35 6.38508 33.8649 6.9 34.5 6.9C35.1351 6.9 35.65 6.38508 35.65 5.75V2.32864C53.1263 2.94856 66.9128 17.4033 66.7062 34.8891C66.4995 52.375 52.375 66.4995 34.8891 66.7062C17.4033 66.9128 2.94856 53.1263 2.32864 35.65H5.75C6.38508 35.65 6.9 35.1351 6.9 34.5C6.9 33.8649 6.38508 33.35 5.75 33.35H1.15C0.514917 33.35 0 33.8649 0 34.5C0 53.5536 15.4464 69 34.5 69C53.5536 69 69 53.5536 69 34.5C69 15.4464 53.5536 0 34.5 0Z" fill="#026D69"/>
<path d="M49.9284 17.2697C46.7636 17.0052 43.9835 19.3568 43.7196 22.5216C43.4552 25.6863 45.8068 28.4664 48.9716 28.7303C49.1338 28.7444 49.2933 28.75 49.4533 28.75C52.4401 28.7444 54.9271 26.4556 55.1792 23.4795C55.4403 20.3159 53.0914 17.5381 49.9284 17.2697ZM49.1625 26.4388C47.3167 26.2877 45.9197 24.7065 45.9966 22.8562C46.0741 21.006 47.5981 19.5466 49.45 19.55C49.5454 19.55 49.642 19.55 49.7397 19.5612C51.6388 19.7201 53.0493 21.3884 52.891 23.2875C52.7321 25.1866 51.0638 26.5971 49.1647 26.4388H49.1625Z" fill="#026D69"/>
<path d="M37.16 21.5232C35.7949 20.2205 33.6471 20.2205 32.2814 21.5232L24.5571 29.2492C23.4431 30.3734 23.447 32.1871 24.5667 33.3062C25.6858 34.4253 27.4995 34.4287 28.6237 33.3146L34.7185 27.2193L39.2612 31.7598C40.3663 32.8665 42.157 32.8755 43.2733 31.78C43.8314 31.251 44.1521 30.5182 44.1622 29.7495C44.1728 28.9802 43.8713 28.2396 43.3272 27.6955L37.16 21.5232ZM41.6555 30.1482C41.4382 30.352 41.0985 30.3453 40.8896 30.1336L35.5349 24.7755C35.0857 24.3269 34.358 24.3269 33.9087 24.7755L26.9986 31.6884C26.774 31.9131 26.4096 31.9136 26.185 31.689C25.9604 31.4644 25.9598 31.1 26.1844 30.8754L33.9087 23.1494C34.358 22.7007 35.0857 22.7007 35.5349 23.1494L41.7049 29.3183C41.8111 29.4238 41.8695 29.5687 41.8655 29.7181C41.8588 29.8837 41.7824 30.0387 41.6555 30.1448V30.1482Z" fill="#026D69"/>
<path d="M35.8802 56.7515H35.8948C36.6573 56.7537 37.3884 56.4505 37.9258 55.9098L44.0105 49.8251C45.3582 48.4774 45.3582 46.2925 44.0105 44.9455L36.2873 37.2211C35.1497 36.1346 33.359 36.1346 32.2219 37.2211C31.0994 38.3436 31.0994 40.1635 32.2219 41.286L38.3166 47.3813L33.8581 51.8398C32.7503 52.9556 32.7402 54.7541 33.8362 55.8817C34.3725 56.4359 35.1092 56.7492 35.8802 56.7515ZM35.4877 53.475L40.7593 48.2034C41.2085 47.7542 41.2085 47.0265 40.7593 46.5772L33.8492 39.6649C33.6998 39.52 33.6397 39.3066 33.6925 39.1056C33.7447 38.9046 33.9019 38.7474 34.103 38.6946C34.304 38.6423 34.5179 38.7019 34.6623 38.8518L42.3854 46.575C42.8347 47.0242 42.8347 47.7519 42.3854 48.2012L36.2997 54.2802C36.193 54.388 36.0475 54.4487 35.8959 54.4481C35.7387 54.4577 35.586 54.3931 35.4832 54.274C35.2693 54.05 35.2709 53.6968 35.4877 53.475Z" fill="#026D69"/>
<path d="M54.625 42.55C56.213 42.55 57.5 41.263 57.5 39.675C57.5 38.087 56.213 36.8 54.625 36.8H48.3V33.35C48.3 32.926 48.0665 32.5358 47.6925 32.3359C47.3185 32.136 46.8648 32.1579 46.5116 32.3932L43.0616 34.6932C42.7421 34.9065 42.55 35.2654 42.55 35.65V39.1C42.55 41.0053 44.0948 42.55 46 42.55H54.625ZM44.85 39.1V36.2654L46 35.4995V37.95C46 38.5851 46.515 39.1 47.15 39.1H54.625C54.9429 39.1 55.2 39.3572 55.2 39.675C55.2 39.9928 54.9429 40.25 54.625 40.25H46C45.365 40.25 44.85 39.7351 44.85 39.1Z" fill="#026D69"/>
<path d="M33.5881 44.1936C32.6958 43.2996 31.6435 42.2221 31.379 41.9166C31.3296 41.8352 31.2712 41.7605 31.2038 41.6931C30.7552 41.2456 30.0291 41.2456 29.5805 41.6931L17.0293 54.2465C15.9063 55.3696 15.9063 57.19 17.0293 58.3131C18.1523 59.4361 19.9728 59.4361 21.0958 58.3131L33.5881 45.8192C34.0367 45.3705 34.0367 44.6422 33.5881 44.1936ZM19.4697 56.6858C19.2451 56.9104 18.8806 56.911 18.656 56.6864C18.4309 56.4617 18.4309 56.0973 18.6555 55.8727L30.3464 44.1829C30.576 44.4244 30.8428 44.6973 31.151 45.005L19.4697 56.6858Z" fill="#026D69"/>
<path d="M29.5069 7.33687C29.5743 7.33687 29.6417 7.33125 29.708 7.32002C30.3335 7.2094 30.7513 6.6125 30.6407 5.98697L29.8354 1.45716C29.7119 0.845658 29.1229 0.44473 28.5091 0.553104C27.8948 0.661478 27.4787 1.23929 27.5714 1.85584L28.376 6.38733C28.4732 6.93594 28.9493 7.33631 29.5069 7.33687Z" fill="#026D69"/>
<path d="M23.5863 7.87761C23.752 8.33132 24.1832 8.63398 24.6667 8.63398C24.8009 8.63454 24.934 8.61096 25.0597 8.56379C25.6572 8.34817 25.966 7.68838 25.7499 7.09092L24.1742 2.76831C23.9485 2.18376 23.2966 1.88728 22.7081 2.10178C22.1196 2.31572 21.8108 2.96203 22.0135 3.55444L23.5863 7.87761Z" fill="#026D69"/>
<path d="M19.1288 10.1765C19.3331 10.5353 19.7133 10.7571 20.126 10.7582C20.5387 10.7588 20.9206 10.5387 21.1261 10.181C21.3316 9.82274 21.3294 9.3825 21.121 9.0265L18.821 5.04249C18.501 4.49725 17.8013 4.31251 17.2538 4.62864C16.7063 4.94478 16.5165 5.64332 16.8288 6.19249L19.1288 10.1765Z" fill="#026D69"/>
<path d="M15.1398 13.216C15.548 13.7034 16.2735 13.7674 16.7615 13.3598C17.2489 12.9515 17.3129 12.2255 16.9052 11.7381L13.9438 8.2134C13.5294 7.75295 12.8241 7.70354 12.3496 8.10166C11.8751 8.50034 11.8015 9.2028 12.1834 9.69077L15.1398 13.216Z" fill="#026D69"/>
<path d="M11.7369 16.9052C12.2243 17.2972 12.9363 17.227 13.3384 16.7474C13.7404 16.2685 13.6854 15.5553 13.2148 15.1432L9.69239 12.1867C9.20443 11.7948 8.49298 11.8644 8.09036 12.344C7.68831 12.8235 7.74334 13.5361 8.21446 13.9482L11.7369 16.9052Z" fill="#026D69"/>
<path d="M5.04423 18.8211L9.02768 21.1211C9.38369 21.3295 9.82392 21.3317 10.1822 21.1262C10.5399 20.9207 10.76 20.5388 10.7594 20.1261C10.7583 19.7134 10.5365 19.3333 10.1777 19.1289L6.19423 16.8289C5.6445 16.5167 4.94597 16.7064 4.62983 17.2539C4.31369 17.8014 4.49843 18.5011 5.04423 18.8211Z" fill="#026D69"/>
<path d="M2.76826 24.1741L7.09087 25.7475C7.21665 25.7941 7.34973 25.8177 7.48393 25.8177C8.04265 25.8177 8.5205 25.4174 8.61765 24.8671C8.71479 24.3173 8.40258 23.7771 7.87756 23.5862L3.55439 22.0134C2.96199 21.8107 2.31567 22.1195 2.10173 22.708C1.88723 23.2965 2.18371 23.9484 2.76826 24.1741Z" fill="#026D69"/>
<path d="M1.45719 29.8416L5.987 30.6406C6.05326 30.6519 6.12064 30.6575 6.18803 30.6581C6.78493 30.6581 7.28244 30.2021 7.3341 29.6074C7.38632 29.0134 6.97472 28.4782 6.38737 28.3749L1.85587 27.5702C1.23034 27.4602 0.633999 27.878 0.52394 28.5035C0.413881 29.129 0.831655 29.7254 1.45719 29.8354V29.8416Z" fill="#026D69"/>
</g>
<defs>
<clipPath id="clip0">
<rect width="69" height="69" fill="white"/>
</clipPath>
</defs>
</svg>
