<svg width="63" height="66" viewBox="0 0 63 66" fill="none" xmlns="http://www.w3.org/2000/svg">
<path d="M50.3651 63.4624C50.2697 63.4624 50.1735 63.4624 50.0773 63.4519C49.4972 63.4099 48.9317 63.2451 48.416 62.9678C47.9003 62.6905 47.4454 62.3066 47.0797 61.8401L37.6604 49.7861C37.3408 49.3779 36.8962 49.0942 36.3995 48.9815L29.0473 47.3214L27.7822 52.4362C27.5804 53.2551 27.2082 54.019 26.6914 54.6746C26.1746 55.3302 25.5257 55.8618 24.7897 56.2325L13.5586 61.9024C13.0412 62.1841 12.4742 62.3557 11.8912 62.4071C11.3083 62.4585 10.7213 62.3885 10.165 62.2014C9.60875 62.0143 9.09457 61.7139 8.65295 61.318C8.21133 60.922 7.85128 60.4386 7.59413 59.8964C7.33698 59.3542 7.18798 58.7642 7.15596 58.1615C7.12394 57.5587 7.20956 56.9555 7.40773 56.3876C7.6059 55.8196 7.91259 55.2985 8.30962 54.8551C8.70665 54.4117 9.18593 54.0551 9.71904 53.8064L19.8118 49.1159L23.2734 36.7922L24.9097 37.2815L21.334 49.9951C21.2996 50.1173 21.24 50.2302 21.1591 50.3262C21.0783 50.4222 20.9782 50.499 20.8658 50.5512L10.4188 55.4077C10.0928 55.5599 9.79975 55.7782 9.55718 56.0497C9.31461 56.3212 9.12747 56.6403 9.00691 56.9879C8.88635 57.3356 8.83482 57.7047 8.85541 58.0733C8.876 58.4419 8.96827 58.8025 9.12674 59.1336C9.28521 59.4646 9.50662 59.7594 9.77781 60.0004C10.049 60.2413 10.3644 60.4235 10.7052 60.536C11.0461 60.6486 11.4054 60.6892 11.7618 60.6555C12.1182 60.6218 12.4643 60.5144 12.7796 60.3398L24.0413 54.6549C24.5556 54.3959 25.0091 54.0245 25.3702 53.5664C25.7313 53.1083 25.9913 52.5745 26.1322 52.0022L27.6008 46.0644C27.6553 45.8436 27.7908 45.6533 27.9787 45.5337C28.1667 45.4141 28.3923 45.3744 28.608 45.4232L36.7639 47.2678C37.6392 47.4665 38.4229 47.9669 38.9859 48.6864L48.4053 60.7395C48.8215 61.279 49.4285 61.6258 50.0926 61.7037C50.7567 61.7815 51.4235 61.584 51.9465 61.1545C52.4694 60.725 52.8056 60.0988 52.881 59.4137C52.9565 58.7285 52.765 58.0404 52.3487 57.5009L41.9401 43.8377C41.5701 43.3544 41.06 43.0057 40.4843 42.8425L35.6589 41.4845C35.4439 41.4241 35.2605 41.2791 35.148 41.0807C35.0354 40.8824 35.0028 40.6464 35.057 40.4234L38.4487 26.4888C38.4938 26.3037 38.5961 26.1386 38.7402 26.0188C38.8843 25.899 39.0623 25.8309 39.2473 25.8248L46.5042 25.5903C47.2347 25.5647 47.9433 25.3263 48.5479 24.9025C49.1525 24.4788 49.6285 23.8871 49.9207 23.1958L53.9604 13.5811C54.2072 13.0009 54.2223 12.3436 54.0022 11.752C53.7822 11.1605 53.3448 10.6823 52.7851 10.4215C52.2254 10.1606 51.5886 10.1381 51.0129 10.3588C50.4372 10.5795 49.9692 11.0257 49.7104 11.6003L46.5979 18.4341C46.3705 18.9302 46.0229 19.3573 45.5888 19.6743C45.1547 19.9912 44.6486 20.1873 44.1196 20.2436L39.942 20.6749C39.6422 20.7062 39.3395 20.6914 39.0438 20.6309L30.5465 18.9111C29.7674 18.7531 28.9707 18.7094 28.1797 18.7811L19.4525 19.5716C18.8301 19.6272 18.227 19.8223 17.6851 20.1431C17.1433 20.464 16.6758 20.903 16.3153 21.4294L11.2234 28.8491C11.0381 29.122 10.9074 29.4303 10.8387 29.7559C10.77 30.0815 10.7648 30.4179 10.8233 30.7456C10.8818 31.0733 11.0029 31.3857 11.1795 31.6647C11.3562 31.9437 11.5848 32.1836 11.8521 32.3705C12.1195 32.5575 12.4202 32.6877 12.7368 32.7537C13.0533 32.8196 13.3795 32.8199 13.6962 32.7546C14.0129 32.6893 14.3138 32.5596 14.5815 32.3732C14.8492 32.1868 15.0782 31.9473 15.2554 31.6686L19.4227 25.0378C19.4939 24.9246 19.5893 24.8298 19.7017 24.7608C19.814 24.6918 19.9403 24.6504 20.0706 24.6399L27.4314 24.0461C27.5685 24.0351 27.7061 24.0586 27.8325 24.1145C27.9589 24.1704 28.0702 24.257 28.1571 24.367C28.2439 24.477 28.3037 24.607 28.3312 24.746C28.3587 24.885 28.3532 25.0288 28.3151 25.1651L25.8555 33.9173L24.2192 33.428L26.3357 25.8942L20.6214 26.3553L16.6865 32.6226C16.3851 33.0949 15.9957 33.5008 15.541 33.8166C15.0863 34.1324 14.5753 34.3519 14.0377 34.4622C13.5002 34.5726 12.9467 34.5717 12.4094 34.4596C11.8722 34.3475 11.3619 34.1263 10.9081 33.809C10.4544 33.4918 10.0663 33.0846 9.76631 32.6113C9.46633 32.138 9.26048 31.6079 9.1607 31.0518C9.06093 30.4957 9.06921 29.9247 9.18508 29.372C9.30095 28.8192 9.52209 28.2957 9.83567 27.8319L14.9276 20.4122C15.4309 19.6774 16.0835 19.0648 16.8398 18.6169C17.5962 18.1691 18.4381 17.8969 19.307 17.8193L28.0333 17.0287C28.9835 16.9423 29.9409 16.995 30.8768 17.1851L39.3742 18.9049C39.5061 18.9324 39.6413 18.9389 39.7751 18.9243L43.9527 18.493C44.1889 18.468 44.4149 18.3806 44.6088 18.2392C44.8026 18.0978 44.9579 17.9072 45.0595 17.6857L48.172 10.852C48.6243 9.86524 49.434 9.10121 50.4268 8.72437C51.4197 8.34753 52.5163 8.38802 53.4805 8.83712C54.4447 9.28622 55.1994 10.108 55.5821 11.1256C55.9649 12.1431 55.945 13.275 55.5268 14.2776L51.4846 23.895C51.0629 24.8913 50.3766 25.744 49.5049 26.3548C48.6332 26.9655 47.6118 27.3092 46.5587 27.3461L39.9437 27.5596L36.9112 40.0159L40.9313 41.1472C41.8594 41.4104 42.6818 41.9727 43.2784 42.752L53.6879 56.4135C54.1777 57.0564 54.4822 57.8285 54.5666 58.6416C54.651 59.4547 54.512 60.2758 54.1653 61.0112C53.8187 61.7466 53.2785 62.3664 52.6064 62.7999C51.9344 63.2334 51.1577 63.463 50.3651 63.4624Z" fill="#026D69"/>
<path d="M36.5546 15.3607C35.2703 15.364 34.014 14.9738 32.9449 14.2398C31.8757 13.5057 31.0418 12.4606 30.5489 11.2371C30.0559 10.0135 29.9261 8.66654 30.1759 7.36679C30.4256 6.06705 31.0437 4.87305 31.9518 3.9361C32.86 2.99916 34.0172 2.36143 35.277 2.10374C36.5367 1.84604 37.8423 1.97998 39.0282 2.48858C40.2141 2.99717 41.227 3.85753 41.9385 4.96064C42.65 6.06375 43.0281 7.35995 43.0249 8.68499C43.0186 10.4535 42.3349 12.1477 41.1228 13.3982C39.9108 14.6488 38.2687 15.3542 36.5546 15.3607ZM36.5546 3.73269C35.6085 3.7294 34.6827 4.01562 33.8943 4.55517C33.1059 5.09471 32.4902 5.86336 32.1252 6.7639C31.7601 7.66444 31.6621 8.65645 31.8434 9.61447C32.0248 10.5725 32.4775 11.4535 33.1441 12.1461C33.8108 12.8388 34.6615 13.3119 35.5888 13.5056C36.5161 13.6994 37.4782 13.6052 38.3536 13.2348C39.2289 12.8644 39.9782 12.2346 40.5066 11.4249C41.035 10.6152 41.3188 9.66199 41.3222 8.68587C41.3206 7.37861 40.8189 6.12484 39.9261 5.19727C39.0333 4.26969 37.8216 3.74334 36.5546 3.73269Z" fill="#026D69"/>
</svg>
