<svg width="70" height="71" viewBox="0 0 70 71" fill="none" xmlns="http://www.w3.org/2000/svg">
<g clip-path="url(#clip0)">
<path d="M59.1844 0.525103C56.6882 0.51656 54.3255 1.65386 52.776 3.61129C51.2265 5.56818 50.6611 8.12843 51.242 10.5563C47.8718 8.47923 43.5554 8.76382 40.4868 11.2653L32.4644 17.7832L19.4004 11.5606L19.9931 10.3779C20.2809 9.80127 20.047 9.10074 19.4704 8.81241C18.8937 8.52462 18.1932 8.75848 17.9048 9.33514L17.2903 10.5563L13.6125 8.80654C13.2329 8.59083 12.7646 8.60471 12.3988 8.84338C12.0331 9.08205 11.8313 9.5044 11.8756 9.93903C11.9199 10.3731 12.2029 10.7463 12.6097 10.906L16.2464 12.6381L15.5662 13.997C15.2784 14.5736 15.5122 15.2747 16.0889 15.5625C16.6656 15.8503 17.3661 15.6164 17.6544 15.0398L18.3539 13.6403L30.4578 19.4096L28.4203 21.0648C27.7096 21.6452 27.1084 22.3484 26.646 23.1407C25.0148 26.5777 26.1478 30.6912 29.3088 32.8078L40.3902 39.9044L28.8928 45.0169C26.9792 45.8407 25.8109 47.7987 25.9941 49.8736L11.3859 40.9658C11.0298 40.7437 10.5824 40.7298 10.2134 40.9295C9.84446 41.1292 9.61113 41.5115 9.60205 41.9307C9.59351 42.3504 9.81029 42.7417 10.1707 42.9569L53.0152 69.0848C56.4255 71.1821 60.7729 70.9739 63.9669 68.56C64.4822 68.1734 64.5863 67.4419 64.1997 66.9266C63.8137 66.4114 63.0822 66.3067 62.5669 66.6933C60.1343 68.529 56.826 68.687 54.2294 67.0921L32.2705 53.6998C32.3464 53.6705 32.4281 53.6576 32.5039 53.624L48.9108 46.3277C52.1513 44.8674 53.6432 41.0951 52.2789 37.8129C51.7728 36.5971 50.9051 35.5656 49.7934 34.8586L41.0315 28.6766L44.0642 27.1602L48.1665 30.0131L51.7824 32.5317C53.5513 33.8009 55.9509 33.7283 57.6402 32.3544L61.6058 34.2403C61.9823 34.4197 62.4254 34.3845 62.7687 34.1479C63.1121 33.9119 63.3032 33.5104 63.2701 33.095C63.2376 32.6791 62.985 32.3128 62.6091 32.1339L58.9778 30.405C59.2549 29.673 59.3403 28.8827 59.2266 28.1085C59.0312 26.8442 58.3274 25.7149 57.2782 24.9823L54.1686 22.8236L54.5188 22.7499C55.7779 22.4776 56.5777 21.2367 56.3054 19.9777L55.6059 16.7521C55.5429 16.4606 55.4447 16.1819 55.356 15.8994C58.3568 17.4948 62.0314 17.0645 64.5826 14.8198C67.1337 12.5746 68.0275 8.98434 66.8267 5.80525C65.6264 2.6267 62.5824 0.523501 59.1844 0.525103ZM55.9396 26.8954C56.4656 27.2612 56.818 27.8277 56.9141 28.4615C57.0097 29.0947 56.8409 29.7403 56.4469 30.2454C55.6043 31.2177 54.1563 31.38 53.1188 30.6186L50.2868 28.6473L48.5771 27.4577L44.8235 24.8472H44.8176L43.7481 24.1029C43.2628 23.766 42.9232 23.2566 42.7988 22.6789L42.3519 20.6061C42.22 20.0012 42.3343 19.3684 42.6696 18.8478C43.0044 18.3273 43.5324 17.961 44.1374 17.8302L46.5044 17.3181C47.1339 17.1819 47.5343 16.5615 47.3982 15.932C47.2626 15.3019 46.6416 14.9015 46.0121 15.0376L43.6456 15.5497C41.1286 16.0964 39.5289 18.5766 40.0693 21.0947L40.5157 23.1685C40.7244 24.1104 41.2205 24.9636 41.9354 25.6113L39.5434 26.8089C39.4061 26.8778 39.2839 26.9723 39.1829 27.0876C38.7371 27.6029 38.5385 28.2863 38.6394 28.9602C38.7318 29.6126 39.1007 30.1941 39.6518 30.5556L48.5002 36.8006C49.2291 37.2565 49.7993 37.9266 50.133 38.7196C51.0087 40.8292 50.0497 43.2533 47.9668 44.1919L31.5556 51.4973C30.9699 51.7573 30.3035 51.7653 29.7119 51.5192C29.1203 51.2731 28.6563 50.7946 28.4283 50.1956C28.0326 48.9686 28.6483 47.6439 29.8411 47.1548L41.3385 42.0353C42.1218 41.6867 42.6504 40.9354 42.715 40.08C42.7796 39.2247 42.3695 38.4029 41.6471 37.94L30.5662 30.8439C28.4342 29.39 27.6445 26.6204 28.6894 24.2604C29.0066 23.7323 29.4134 23.2635 29.8924 22.8759L41.9578 13.0781C44.7375 10.8067 48.7875 11.0149 51.3194 13.5597C52.3313 14.5699 53.0291 15.8514 53.3292 17.2492L54.0287 20.4742L52.3734 20.8245C51.6916 20.9703 51.1609 21.5079 51.0242 22.1919C50.8875 22.8764 51.1699 23.5764 51.7439 23.9737L55.9396 26.8954ZM59.1844 14.5218C55.9637 14.5218 53.3522 11.9109 53.3522 8.69014C53.3522 5.46887 55.9637 2.85789 59.1844 2.85789C62.4051 2.85789 65.0166 5.46887 65.0166 8.69014C65.0124 11.9093 62.4035 14.5181 59.1844 14.5218Z" fill="#026D69"/>
<path d="M13.111 33.1847C13.6316 33.1852 14.0892 32.8408 14.2333 32.3405C14.377 31.8402 14.1719 31.3052 13.7304 31.0292L4.3992 25.1969C3.85138 24.8557 3.13055 25.0229 2.78936 25.5702C2.44764 26.118 2.61477 26.8388 3.16259 27.18L12.4938 33.0122C12.6796 33.126 12.8931 33.1858 13.111 33.1847Z" fill="#026D69"/>
<path d="M11.3266 27.1752L20.6577 33.0074C21.205 33.3486 21.9258 33.1815 22.267 32.6342C22.6087 32.0864 22.4416 31.3661 21.8938 31.0244L12.5626 25.1927C12.0153 24.8509 11.2945 25.0181 10.9528 25.5659C10.6116 26.1132 10.7787 26.834 11.3266 27.1752Z" fill="#026D69"/>
</g>
<defs>
<clipPath id="clip0">
<rect width="70" height="70" fill="white" transform="translate(0 0.525085)"/>
</clipPath>
</defs>
</svg>
