<svg width="63" height="63" viewBox="0 0 63 63" fill="none" xmlns="http://www.w3.org/2000/svg">
<g clip-path="url(#clip0)">
<path d="M62.9999 31.5001L55.868 23.5818L56.9846 12.9812L46.5559 10.7735L41.2362 1.5322L31.4999 5.88366L30.1858 31.5001L31.4999 57.1164L41.2363 61.4678L46.5559 52.2267L56.9846 50.0188L55.868 39.4182L62.9999 31.5001Z" fill="#D63B34"/>
<path d="M21.7635 1.5322L16.444 10.7735L6.01523 12.9813L7.13189 23.5818L0 31.5001L7.13189 39.4182L6.01523 50.0188L16.444 52.2267L21.7637 61.4678L31.5001 57.1164V5.88366L21.7635 1.5322Z" fill="#D97170"/>
<path d="M44.7055 24.6027L41.9482 22.1416L31.4999 33.8473L30.1858 36.7564L31.4999 39.3976L44.7055 24.6027Z" fill="#E1F9F9"/>
<path d="M20.5198 28.7167L17.9065 31.33L28.8938 42.3175L31.5001 39.3976V33.8473L28.7413 36.9381L20.5198 28.7167Z" fill="#E1F9F9"/>
</g>
<defs>
<clipPath id="clip0">
<rect width="63" height="63" fill="white"/>
</clipPath>
</defs>
</svg>
