<svg width="40" height="41" viewBox="0 0 40 41" fill="none" xmlns="http://www.w3.org/2000/svg">
<g clip-path="url(#clip0)">
<path d="M20 0.525085C12.242 0.525085 5.9375 6.82977 5.9375 14.5876C5.9375 17.2126 6.66422 19.7674 8.04695 21.9705L19.0467 39.9716C19.2344 40.2763 19.5156 40.4638 19.8438 40.5107C20.289 40.5809 20.7814 40.3935 21.0391 39.9482L32.0704 21.7829C33.3827 19.6267 34.0625 17.1189 34.0625 14.5876C34.0625 6.82977 27.758 0.525085 20 0.525085ZM20 21.6188C16.0627 21.6188 12.9688 18.4313 12.9688 14.5876C12.9688 10.7203 16.1327 7.55634 20 7.55634C23.8673 7.55634 27.0312 10.7203 27.0312 14.5876C27.0312 18.4079 23.9843 21.6188 20 21.6188Z" fill="#E1534E"/>
<path d="M20 0.525085V7.55634C23.8673 7.55634 27.0312 10.7203 27.0312 14.5876C27.0312 18.4079 23.9843 21.6188 20 21.6188V40.5244C20.3999 40.5337 20.8112 40.342 21.0391 39.9482L32.0703 21.7829C33.3827 19.6267 34.0625 17.1189 34.0625 14.5876C34.0625 6.82977 27.758 0.525085 20 0.525085Z" fill="#A9211C"/>
</g>
<defs>
<clipPath id="clip0">
<rect width="40" height="40" fill="white" transform="translate(0 0.525085)"/>
</clipPath>
</defs>
</svg>
