<svg width="47" height="47" viewBox="0 0 47 47" fill="none" xmlns="http://www.w3.org/2000/svg">
<path d="M23.5 0C10.5122 0 0 10.5104 0 23.5C0 27.6219 1.07503 31.6477 3.11643 35.1984L0.0885697 44.6011C-0.122635 45.2566 0.0509186 45.9752 0.537872 46.4621C1.02016 46.9444 1.73697 47.1244 2.39891 46.9114L11.8016 43.8836C15.3523 45.925 19.3781 47 23.5 47C36.4878 47 47 36.4896 47 23.5C47 10.5122 36.4896 0 23.5 0ZM23.5 43.3281C19.7768 43.3281 16.1476 42.2893 13.0047 40.3239C12.5525 40.0414 11.991 39.965 11.4685 40.1332L4.68092 42.3191L6.86684 35.5315C7.0325 35.0166 6.96258 34.4543 6.67571 33.9953C4.71069 30.8524 3.67188 27.2232 3.67188 23.5C3.67188 12.5668 12.5668 3.67188 23.5 3.67188C34.4332 3.67188 43.3281 12.5668 43.3281 23.5C43.3281 34.4332 34.4332 43.3281 23.5 43.3281ZM25.7949 23.5C25.7949 24.7672 24.7676 25.7949 23.5 25.7949C22.2324 25.7949 21.2051 24.7672 21.2051 23.5C21.2051 22.2324 22.2324 21.2051 23.5 21.2051C24.7676 21.2051 25.7949 22.2324 25.7949 23.5ZM34.9746 23.5C34.9746 24.7672 33.9473 25.7949 32.6797 25.7949C31.4121 25.7949 30.3848 24.7672 30.3848 23.5C30.3848 22.2324 31.4121 21.2051 32.6797 21.2051C33.9473 21.2051 34.9746 22.2324 34.9746 23.5ZM16.6152 23.5C16.6152 24.7672 15.5879 25.7949 14.3203 25.7949C13.0531 25.7949 12.0254 24.7672 12.0254 23.5C12.0254 22.2324 13.0531 21.2051 14.3203 21.2051C15.5879 21.2051 16.6152 22.2324 16.6152 23.5Z" fill="#00BBC5"/>
</svg>
