<svg width="63" height="63" viewBox="0 0 63 63" fill="none" xmlns="http://www.w3.org/2000/svg">
<g clip-path="url(#clip0)">
<path d="M56.1462 20.7144C55.8743 19.8772 55.1608 19.3068 54.2844 19.2256L39.101 17.8173L36.2579 11.2152C36.0595 10.7545 35.5254 10.5416 35.0646 10.7402C34.6039 10.9386 34.3913 11.4729 34.5896 11.9335L37.646 19.0308C37.7775 19.3361 38.0654 19.5452 38.3963 19.5758L54.1166 21.0339C54.3171 21.0526 54.3918 21.1932 54.4185 21.2754C54.4452 21.3576 54.4674 21.5153 54.316 21.6481L42.4551 32.068C42.2053 32.2874 42.0955 32.6256 42.1686 32.95L45.6398 48.3513C45.684 48.5479 45.5733 48.6623 45.5034 48.7132C45.4334 48.7639 45.2904 48.8339 45.1174 48.7309L31.5422 40.6706C31.2565 40.5011 30.9005 40.5011 30.6148 40.6706L17.04 48.7311C16.8671 48.8341 16.7239 48.764 16.6538 48.7133C16.5839 48.6626 16.4733 48.548 16.5175 48.3517L18.3094 40.4015C18.4197 39.9122 18.1124 39.4261 17.6232 39.3158C17.1335 39.2056 16.6476 39.5128 16.5374 40.0021L14.7455 47.9523C14.552 48.8109 14.8742 49.6656 15.5861 50.1829C15.9702 50.462 16.4125 50.6028 16.8573 50.6027C17.2371 50.6027 17.6188 50.5 17.9673 50.2931L31.0785 42.5078L44.1899 50.2931C44.9468 50.7423 45.8591 50.7001 46.5709 50.1829C47.2829 49.6657 47.605 48.8109 47.4115 47.9522L44.0592 33.0768L55.5147 23.013C56.1763 22.4321 56.418 21.5512 56.1462 20.7144Z" fill="#026D69"/>
<path d="M34.7658 7.75055L33.0698 3.81222C32.7216 3.00392 31.9586 2.50174 31.0785 2.50174C30.1984 2.50174 29.4355 3.00379 29.0874 3.81222L23.0563 17.8173L7.87296 19.2256C6.9966 19.3069 6.28324 19.8774 6.01126 20.7144C5.73929 21.5514 5.98123 22.4321 6.64228 23.013L18.098 33.0768L17.3535 36.3807C17.2432 36.8699 17.5505 37.3561 18.0399 37.4663C18.1071 37.4815 18.1742 37.4889 18.2403 37.4889C18.6556 37.4889 19.0303 37.2022 19.1255 36.78L19.9886 32.95C20.0618 32.6257 19.9518 32.2874 19.7021 32.0681L7.84123 21.6482C7.68999 21.5154 7.71227 21.3577 7.73879 21.2755C7.76555 21.1933 7.84026 21.0527 8.04067 21.034L23.7608 19.576C24.0918 19.5453 24.3796 19.3362 24.5111 19.0309L30.7558 4.53066C30.8354 4.34575 30.9923 4.31815 31.0786 4.31815C31.1651 4.31815 31.322 4.34575 31.4016 4.53066L33.0976 8.469C33.2961 8.92964 33.8302 9.1424 34.291 8.94392C34.7515 8.74545 34.9642 8.21119 34.7658 7.75055Z" fill="#026D69"/>
<path d="M21.1291 14.0132C20.7009 13.071 16.9121 4.76232 15.745 3.14124C15.2966 2.51833 14.6324 2.10734 13.875 1.98394C13.1167 1.86043 12.3572 2.03953 11.7343 2.48818C10.4485 3.41394 10.1556 5.21291 11.0811 6.4988C12.2483 8.12001 18.9259 14.3489 19.6835 15.0538C19.8569 15.2151 20.0791 15.2971 20.3024 15.2971C20.4875 15.2971 20.6734 15.2407 20.8328 15.1259C21.1842 14.873 21.3082 14.4073 21.1291 14.0132ZM12.5555 5.43778C12.215 4.96479 12.3228 4.30301 12.7957 3.96249C12.9775 3.83147 13.1913 3.76305 13.4111 3.76305C13.4682 3.76305 13.5256 3.76765 13.5831 3.77698C13.8619 3.82239 14.106 3.97351 14.2711 4.20262C14.8203 4.96539 16.2152 7.80129 17.4776 10.4655C15.3516 8.42286 13.1047 6.20055 12.5555 5.43778Z" fill="#026D69"/>
<path d="M50.4231 2.48855C49.7999 2.04001 49.0395 1.86092 48.2824 1.98443C47.5248 2.10783 46.8608 2.51882 46.4124 3.1416C45.2453 4.76269 41.4565 13.0714 41.0283 14.0135C40.8493 14.4076 40.9732 14.8733 41.3246 15.1263C41.4838 15.2409 41.6698 15.2975 41.855 15.2975C42.0784 15.2975 42.3007 15.2154 42.4739 15.0542C43.2315 14.3493 49.9089 8.12037 51.0762 6.49929C52.0018 5.2134 51.709 3.41419 50.4231 2.48855ZM49.6021 5.43778C49.0529 6.20055 46.8059 8.42299 44.68 10.4656C45.9425 7.80153 47.3373 4.96564 47.8865 4.20275C48.0515 3.97352 48.2957 3.82239 48.5745 3.77698C48.632 3.76766 48.6894 3.76306 48.7466 3.76306C48.9663 3.76306 49.1801 3.83148 49.362 3.96238C49.8348 4.30301 49.9426 4.96479 49.6021 5.43778Z" fill="#026D69"/>
<path d="M61.7656 36.8812C61.418 36.1969 60.8246 35.689 60.0949 35.451C60.0949 35.4509 60.0949 35.4509 60.0949 35.4509C58.1959 34.8317 49.1286 33.7465 48.1012 33.6248C47.6727 33.5743 47.2652 33.8336 47.131 34.2452C46.9967 34.6566 47.1716 35.1058 47.5489 35.3182C48.4506 35.8257 56.4141 40.2951 58.3131 40.9143C58.6064 41.0099 58.9075 41.0574 59.2072 41.0574C59.6534 41.0574 60.0965 40.9523 60.5058 40.7443C61.1901 40.3966 61.6981 39.8032 61.9359 39.0737C62.1737 38.3439 62.1133 37.5656 61.7656 36.8812ZM60.209 38.5104C60.1214 38.7789 59.9347 38.9971 59.6831 39.125C59.4311 39.2529 59.1447 39.275 58.8765 39.1875C57.9829 38.8961 55.1829 37.4307 52.5908 36.026C55.5127 36.4194 58.6383 36.8865 59.5318 37.178C59.8003 37.2656 60.0185 37.4525 60.1464 37.7041C60.2742 37.9557 60.2965 38.242 60.209 38.5104Z" fill="#026D69"/>
<path d="M15.0266 34.2453C14.8924 33.8338 14.4864 33.5736 14.0564 33.6249C13.0288 33.7466 3.96151 34.8318 2.06264 35.451C2.06264 35.451 2.06264 35.451 2.06264 35.4511C1.33293 35.6891 0.739567 36.1969 0.391907 36.8814C0.0442467 37.5655 -0.0161791 38.3442 0.22177 39.0736C0.459719 39.8031 0.967586 40.3967 1.65201 40.7444C2.06131 40.9524 2.50439 41.0575 2.95062 41.0575C3.25032 41.0575 3.55136 41.0101 3.84453 40.9145C5.74364 40.2952 13.707 35.8259 14.6089 35.3183C14.9859 35.1059 15.1609 34.6567 15.0266 34.2453ZM3.28108 39.1876C3.01262 39.275 2.72611 39.2526 2.4746 39.125C2.22297 38.997 2.03624 38.7789 1.94857 38.5103C1.86102 38.242 1.8833 37.9556 2.01117 37.7038C2.13917 37.4522 2.35726 37.2654 2.62572 37.1778C3.51939 36.8863 6.64482 36.4191 9.56669 36.0257C6.97493 37.4308 4.17475 38.8961 3.28108 39.1876Z" fill="#026D69"/>
<path d="M32.0297 46.5238C31.9447 46.0993 31.5719 45.7937 31.1389 45.7937C30.706 45.7937 30.3333 46.0993 30.2484 46.5238C30.0455 47.5386 28.2656 56.4953 28.2656 58.4926C28.2656 60.077 29.5547 61.3659 31.1389 61.3659C32.7232 61.3659 34.0123 60.0769 34.0123 58.4926C34.0125 56.4951 32.2327 47.5384 32.0297 46.5238ZM31.1389 59.5495C30.5561 59.5495 30.0819 59.0753 30.0819 58.4925C30.0819 57.5525 30.607 54.4361 31.1389 51.5365C31.6709 54.4361 32.196 57.5527 32.196 58.4925C32.196 59.0753 31.7218 59.5495 31.1389 59.5495Z" fill="#026D69"/>
</g>
<defs>
<clipPath id="clip0">
<rect width="62" height="62" fill="white" transform="translate(0.0787354 0.655914)"/>
</clipPath>
</defs>
</svg>
