<svg width="63" height="66" viewBox="0 0 63 66" fill="none" xmlns="http://www.w3.org/2000/svg">
<path d="M50.3652 64.1565C50.2698 64.1565 50.1736 64.1565 50.0774 64.146C49.4973 64.104 48.9317 63.9392 48.416 63.6619C47.9003 63.3846 47.4455 63.0007 47.0798 62.5341L37.6604 50.4802C37.3409 50.072 36.8962 49.7883 36.3996 49.6756L29.0473 48.0154L27.7822 53.1302C27.5804 53.9492 27.2082 54.7131 26.6914 55.3686C26.1747 56.0242 25.5257 56.5559 24.7897 56.9266L13.5587 62.5965C13.0412 62.8782 12.4742 63.0498 11.8913 63.1012C11.3083 63.1525 10.7213 63.0826 10.1651 62.8955C9.6088 62.7084 9.09462 62.408 8.65301 62.012C8.21139 61.6161 7.85133 61.1327 7.59419 60.5905C7.33704 60.0483 7.18804 59.4583 7.15602 58.8556C7.124 58.2528 7.20961 57.6496 7.40779 57.0816C7.60596 56.5137 7.91265 55.9925 8.30968 55.5492C8.70671 55.1058 9.18598 54.7492 9.71909 54.5005L19.8119 49.81L23.2735 37.4863L24.9098 37.9756L21.3341 50.6892C21.2997 50.8113 21.24 50.9243 21.1592 51.0203C21.0783 51.1163 20.9782 51.193 20.8658 51.2452L10.4189 56.1018C10.0928 56.254 9.79981 56.4723 9.55724 56.7438C9.31467 57.0153 9.12753 57.3343 9.00697 57.682C8.8864 58.0296 8.83488 58.3988 8.85547 58.7674C8.87605 59.136 8.96833 59.4966 9.12679 59.8277C9.28526 60.1587 9.50668 60.4535 9.77787 60.6944C10.0491 60.9354 10.3645 61.1175 10.7053 61.2301C11.0461 61.3426 11.4055 61.3833 11.7618 61.3496C12.1182 61.3158 12.4644 61.2085 12.7797 61.0339L24.0414 55.349C24.5557 55.09 25.0091 54.7185 25.3702 54.2604C25.7313 53.8023 25.9914 53.2686 26.1323 52.6963L27.6009 46.7585C27.6554 46.5377 27.7909 46.3474 27.9788 46.2278C28.1667 46.1081 28.3923 46.0685 28.608 46.1173L36.764 47.9618C37.6393 48.1606 38.423 48.6609 38.986 49.3804L48.4053 61.4335C48.8216 61.9731 49.4285 62.3199 50.0926 62.3977C50.7567 62.4756 51.4236 62.278 51.9465 61.8486C52.4695 61.4191 52.8056 60.7929 52.8811 60.1077C52.9565 59.4225 52.765 58.7345 52.3488 58.195L41.9402 44.5318C41.5701 44.0485 41.06 43.6998 40.4844 43.5366L35.6589 42.1786C35.444 42.1182 35.2606 41.9732 35.148 41.7748C35.0355 41.5765 35.0028 41.3405 35.057 41.1175L38.4488 27.1829C38.4939 26.9977 38.5962 26.8327 38.7403 26.7129C38.8844 26.5931 39.0624 26.525 39.2474 26.5189L46.5043 26.2843C47.2348 26.2588 47.9433 26.0204 48.548 25.5966C49.1526 25.1729 49.6285 24.5811 49.9207 23.8899L53.9604 14.2752C54.2073 13.6949 54.2223 13.0377 54.0023 12.4461C53.7822 11.8545 53.3449 11.3764 52.7852 11.1155C52.2255 10.8547 51.5886 10.8322 51.013 11.0529C50.4373 11.2736 49.9692 11.7198 49.7105 12.2944L46.5979 19.1282C46.3705 19.6242 46.023 20.0514 45.5888 20.3684C45.1547 20.6853 44.6487 20.8814 44.1196 20.9377L39.9421 21.3689C39.6422 21.4002 39.3395 21.3854 39.0439 21.325L30.5465 19.6052C29.7675 19.4472 28.9707 19.4035 28.1798 19.4752L19.4526 20.2657C18.8302 20.3213 18.227 20.5164 17.6852 20.8372C17.1433 21.1581 16.6759 21.597 16.3154 22.1235L11.2234 29.5431C11.0382 29.8161 10.9074 30.1243 10.8388 30.4499C10.7701 30.7755 10.7648 31.112 10.8234 31.4397C10.8819 31.7674 11.003 32.0798 11.1796 32.3588C11.3562 32.6377 11.5848 32.8777 11.8522 33.0646C12.1195 33.2516 12.4202 33.3818 12.7368 33.4477C13.0534 33.5137 13.3795 33.514 13.6962 33.4487C14.0129 33.3834 14.3139 33.2537 14.5815 33.0673C14.8492 32.8808 15.0783 32.6413 15.2554 32.3627L19.4228 25.7318C19.4939 25.6186 19.5894 25.5239 19.7017 25.4549C19.8141 25.3859 19.9403 25.3445 20.0707 25.3339L27.4315 24.7402C27.5685 24.7292 27.7062 24.7527 27.8325 24.8086C27.9589 24.8645 28.0703 24.9511 28.1571 25.0611C28.244 25.1711 28.3037 25.3011 28.3312 25.4401C28.3588 25.5791 28.3532 25.7229 28.3152 25.8592L25.8556 34.6114L24.2193 34.1221L26.3358 26.5883L20.6215 27.0494L16.6865 33.3166C16.3851 33.789 15.9958 34.1949 15.5411 34.5107C15.0864 34.8265 14.5754 35.0459 14.0378 35.1563C13.5002 35.2667 12.9467 35.2658 12.4095 35.1537C11.8722 35.0415 11.3619 34.8204 10.9082 34.5031C10.4545 34.1858 10.0663 33.7787 9.76636 33.3054C9.46639 32.8321 9.26054 32.302 9.16076 31.7459C9.06098 31.1898 9.06927 30.6188 9.18514 30.0661C9.30101 29.5133 9.52215 28.9898 9.83573 28.526L14.9277 21.1063C15.431 20.3715 16.0835 19.7589 16.8399 19.311C17.5963 18.8632 18.4382 18.591 19.307 18.5133L28.0334 17.7228C28.9836 17.6364 29.9409 17.689 30.8769 17.8791L39.3742 19.599C39.5061 19.6265 39.6414 19.633 39.7752 19.6183L43.9528 19.187C44.189 19.1621 44.4149 19.0747 44.6088 18.9333C44.8027 18.7919 44.9579 18.6012 45.0595 18.3798L48.1721 11.546C48.6243 10.5593 49.4341 9.79529 50.4269 9.41845C51.4198 9.04161 52.5163 9.0821 53.4805 9.5312C54.4447 9.9803 55.1994 10.8021 55.5822 11.8196C55.9649 12.8372 55.9451 13.9691 55.5269 14.9717L51.4847 24.5891C51.063 25.5853 50.3766 26.4381 49.5049 27.0488C48.6332 27.6595 47.6118 28.0033 46.5588 28.0402L39.9438 28.2537L36.9112 40.71L40.9313 41.8413C41.8595 42.1045 42.6819 42.6668 43.2785 43.4461L53.688 57.1075C54.1777 57.7504 54.4822 58.5226 54.5667 59.3357C54.6511 60.1487 54.512 60.9699 54.1654 61.7053C53.8187 62.4406 53.2785 63.0605 52.6065 63.494C51.9344 63.9275 51.1577 64.1571 50.3652 64.1565Z" fill="#026D69"/>
<path d="M36.5545 16.0548C35.2702 16.0581 34.0139 15.6679 32.9448 14.9338C31.8756 14.1997 31.0417 13.1547 30.5488 11.9312C30.0558 10.7076 29.926 9.36063 30.1758 8.06088C30.4255 6.76114 31.0436 5.56714 31.9517 4.6302C32.8599 3.69325 34.0171 3.05552 35.2769 2.79783C36.5366 2.54013 37.8422 2.67407 39.0281 3.18267C40.214 3.69126 41.2269 4.55163 41.9384 5.65473C42.6499 6.75784 43.028 8.05404 43.0248 9.37908C43.0185 11.1476 42.3348 12.8418 41.1227 14.0923C39.9107 15.3429 38.2686 16.0483 36.5545 16.0548ZM36.5545 4.42678C35.6084 4.42349 34.6826 4.70971 33.8942 5.24926C33.1058 5.78881 32.4901 6.55745 32.1251 7.45799C31.76 8.35854 31.662 9.35054 31.8434 10.3086C32.0247 11.2666 32.4774 12.1476 33.144 12.8402C33.8107 13.5329 34.6614 14.006 35.5887 14.1997C36.516 14.3935 37.4781 14.2993 38.3535 13.9289C39.2288 13.5585 39.9781 12.9287 40.5065 12.119C41.0349 11.3093 41.3187 10.3561 41.3221 9.37996C41.3206 8.0727 40.8188 6.81893 39.926 5.89136C39.0332 4.96379 37.8215 4.43743 36.5545 4.42678Z" fill="#026D69"/>
</svg>