<svg width="72" height="72" viewBox="0 0 72 72" fill="none" xmlns="http://www.w3.org/2000/svg">
<g clip-path="url(#clip0)">
<path d="M59.1843 0.525072C56.6881 0.516529 54.3254 1.65382 52.7759 3.61125C51.2264 5.56815 50.661 8.1284 51.2419 10.5562C47.8717 8.4792 43.5553 8.76379 40.4867 11.2653L32.4642 17.7831L19.4003 11.5606L19.993 10.3779C20.2808 9.80124 20.0469 9.10071 19.4702 8.81238C18.8936 8.52459 18.1931 8.75845 17.9047 9.33511L17.2902 10.5562L13.6124 8.80651C13.2327 8.5908 12.7645 8.60468 12.3987 8.84335C12.033 9.08202 11.8311 9.50437 11.8755 9.939C11.9198 10.3731 12.2028 10.7463 12.6096 10.906L16.2463 12.6381L15.5661 13.997C15.2783 14.5736 15.5121 15.2747 16.0888 15.5625C16.6654 15.8503 17.366 15.6164 17.6543 15.0397L18.3538 13.6403L30.4577 19.4095L28.4202 21.0647C27.7095 21.6451 27.1083 22.3483 26.6459 23.1407C25.0147 26.5777 26.1477 30.6912 29.3087 32.8077L40.3901 39.9043L28.8927 45.0168C26.9791 45.8407 25.8108 47.7987 25.9939 49.8736L11.3858 40.9658C11.0297 40.7437 10.5823 40.7298 10.2133 40.9295C9.84434 41.1292 9.61101 41.5115 9.60193 41.9306C9.59339 42.3503 9.81017 42.7417 10.1706 42.9569L53.0151 69.0848C56.4254 71.1821 60.7728 70.9739 63.9668 68.5599C64.4821 68.1733 64.5862 67.4418 64.1996 66.9266C63.8136 66.4113 63.0821 66.3067 62.5668 66.6933C60.1342 68.5289 56.8259 68.687 54.2293 67.0921L32.2704 53.6998C32.3462 53.6704 32.4279 53.6576 32.5038 53.624L48.9107 46.3277C52.1512 44.8673 53.643 41.095 52.2788 37.8129C51.7726 36.5971 50.905 35.5655 49.7933 34.8586L41.0313 28.6766L44.0641 27.1602L48.1664 30.0131L51.7823 32.5317C53.5512 33.8008 55.9507 33.7282 57.6401 32.3544L61.6057 34.2403C61.9821 34.4197 62.4253 34.3844 62.7686 34.1479C63.112 33.9119 63.3031 33.5104 63.27 33.095C63.2374 32.679 62.9849 32.3128 62.609 32.1339L58.9776 30.405C59.2548 29.6729 59.3402 28.8827 59.2265 28.1085C59.031 26.8441 58.3273 25.7148 57.2781 24.9823L54.1684 22.8235L54.5187 22.7499C55.7777 22.4776 56.5776 21.2367 56.3053 19.9776L55.6058 16.7521C55.5428 16.4606 55.4446 16.1818 55.3559 15.8994C58.3567 17.4948 62.0313 17.0644 64.5824 14.8198C67.1336 12.5745 68.0274 8.98431 66.8266 5.80522C65.6263 2.62667 62.5823 0.52347 59.1843 0.525072ZM55.9395 26.8954C56.4655 27.2611 56.8179 27.8276 56.914 28.4614C57.0095 29.0947 56.8408 29.7402 56.4468 30.2453C55.6042 31.2176 54.1562 31.38 53.1187 30.6186L50.2867 28.6472L48.577 27.4576L44.8234 24.8472H44.8175L43.748 24.1029C43.2627 23.766 42.9231 23.2566 42.7987 22.6788L42.3518 20.6061C42.2199 20.0011 42.3342 19.3684 42.6695 18.8478C43.0043 18.3272 43.5323 17.9609 44.1373 17.8301L46.5042 17.3181C47.1338 17.1819 47.5342 16.5615 47.3981 15.932C47.2624 15.3019 46.6415 14.9015 46.0119 15.0376L43.6455 15.5497C41.1285 16.0964 39.5288 18.5766 40.0692 21.0946L40.5156 23.1685C40.7243 24.1103 41.2204 24.9636 41.9353 25.6113L39.5432 26.8089C39.406 26.8778 39.2837 26.9723 39.1828 27.0876C38.737 27.6029 38.5384 28.2863 38.6393 28.9601C38.7317 29.6126 39.1006 30.1941 39.6516 30.5556L48.5001 36.8005C49.2289 37.2565 49.7992 37.9266 50.1329 38.7195C51.0086 40.8291 50.0496 43.2532 47.9667 44.1919L31.5555 51.4973C30.9697 51.7573 30.3034 51.7653 29.7118 51.5192C29.1202 51.273 28.6562 50.7946 28.4282 50.1955C28.0325 48.9685 28.6482 47.6438 29.841 47.1547L41.3384 42.0353C42.1216 41.6866 42.6503 40.9354 42.7149 40.08C42.7795 39.2246 42.3694 38.4029 41.647 37.94L30.5661 30.8439C28.4341 29.39 27.6444 26.6204 28.6893 24.2604C29.0064 23.7323 29.4133 23.2635 29.8923 22.8759L41.9577 13.078C44.7374 10.8067 48.7874 11.0149 51.3193 13.5597C52.3311 14.5699 53.029 15.8513 53.3291 17.2492L54.0285 20.4742L52.3733 20.8245C51.6915 20.9702 51.1607 21.5079 51.0241 22.1919C50.8874 22.8764 51.1698 23.5764 51.7438 23.9737L55.9395 26.8954ZM59.1843 14.5218C55.9635 14.5218 53.352 11.9108 53.352 8.69011C53.352 5.46884 55.9635 2.85786 59.1843 2.85786C62.405 2.85786 65.0165 5.46884 65.0165 8.69011C65.0123 11.9092 62.4034 14.5181 59.1843 14.5218Z" fill="#026D69"/>
<path d="M13.111 33.1847C13.6316 33.1852 14.0892 32.8408 14.2333 32.3405C14.377 31.8402 14.1719 31.3052 13.7303 31.0291L4.39918 25.1969C3.85136 24.8557 3.13054 25.0228 2.78935 25.5701C2.44763 26.1179 2.61475 26.8388 3.16257 27.18L12.4937 33.0122C12.6796 33.1259 12.8931 33.1857 13.111 33.1847Z" fill="#026D69"/>
<path d="M11.3267 27.1751L20.6578 33.0074C21.2051 33.3486 21.9259 33.1815 22.2671 32.6342C22.6089 32.0863 22.4417 31.3661 21.8939 31.0243L12.5627 25.1926C12.0155 24.8509 11.2946 25.018 10.9529 25.5658C10.6117 26.1131 10.7788 26.834 11.3267 27.1751Z" fill="#026D69"/>
</g>
<defs>
<clipPath id="clip0">
<rect width="70" height="70" fill="white" transform="translate(0 0.525085)"/>
</clipPath>
</defs>
</svg>