<svg width="46" height="46" viewBox="0 0 46 46" fill="none" xmlns="http://www.w3.org/2000/svg">
<path d="M43.7 27.5993H36.0011C41.6721 20.7376 41.0342 10.6499 34.5441 4.55719C28.0539 -1.53554 17.9461 -1.53554 11.4559 4.55719C4.96574 10.6499 4.32785 20.7376 9.99885 27.5993H2.29998C1.02973 27.5993 -1.52588e-05 28.629 -1.52588e-05 29.8993V45.2326C-1.52588e-05 45.6561 0.343233 45.9993 0.766651 45.9993H45.2333C45.6567 45.9993 46 45.6561 46 45.2326V29.8993C46 28.629 44.9702 27.5993 43.7 27.5993ZM44.4667 29.8993V32.1993H30.0135C31.685 31.431 33.2201 30.3951 34.5583 29.1326H43.7C44.1234 29.1326 44.4667 29.4759 44.4667 29.8993ZM8.43332 33.7326V36.7993H5.36665V33.7326H8.43332ZM13.0333 33.7326V36.7993H9.96665V33.7326H13.0333ZM17.6333 33.7326V36.7993H14.5667V33.7326H17.6333ZM8.60122 11.645C9.01269 10.5038 9.55802 9.41548 10.2258 8.40274C11.5498 8.21874 22.9172 6.90697 28.6404 14.8427C27.0021 15.8529 25.1767 16.5217 23.2737 16.8092C19.9522 13.4624 15.4482 11.5553 10.7333 11.4993C10.0201 11.4996 9.3078 11.5482 8.60122 11.645ZM35.9643 8.7163C36.6106 9.73786 37.1331 10.8327 37.5206 11.9777C34.2332 18.9781 26.1824 22.3699 23.1411 23.4325C23.052 22.7807 23.0049 22.1238 23 21.466C23.044 20.5329 23.2135 19.61 23.5037 18.7221C23.5413 18.5841 23.5758 18.4468 23.6133 18.3096C29.077 17.3819 33.7136 13.7806 35.9643 8.7163ZM38.3333 16.866C38.3278 17.7022 38.2537 18.5366 38.1117 19.3607C34.669 23.682 30.0481 26.9134 24.8078 28.6642C24.1855 27.4945 23.7182 26.2486 23.4178 24.9581C26.2307 23.9998 34.0868 20.8181 38.0819 14.1765C38.2447 15.0638 38.3289 15.9638 38.3333 16.866ZM26.8977 31.678C26.4341 31.1532 26.0073 30.5971 25.6205 30.0135C29.9999 28.5261 33.9618 26.0165 37.178 22.6926C35.3408 27.1276 31.5387 30.4508 26.8977 31.678ZM36.0333 33.7326V36.7993H32.9667V33.7326H36.0333ZM40.6333 40.6326H37.5667V38.3326H40.6333V40.6326ZM36.0333 40.6326H32.9667V38.3326H36.0333V40.6326ZM5.36665 38.3326H8.43332V40.6326H5.36665V38.3326ZM9.96665 38.3326H13.0333V40.6326H9.96665V38.3326ZM14.5667 38.3326H17.6333V40.6326H14.5667V38.3326ZM19.1667 38.3326H22.2333V40.6326H19.1667V38.3326ZM17.7361 14.6955C19.3778 15.4863 20.8703 16.5552 22.1475 17.855C21.372 20.0417 21.2429 22.4056 21.7756 24.6637V24.6745V24.6798C22.2979 27.3701 23.4717 29.8914 25.1942 32.023C23.4471 32.2972 21.6647 32.2531 19.9333 31.8926C17.2651 26.5774 16.49 20.5109 17.7361 14.6955ZM23.7667 33.7326H26.8333V36.7993H23.7667V33.7326ZM22.2333 33.7326V36.7993H19.1667V33.7326H22.2333ZM23.7667 38.3326H26.8333V40.6326H23.7667V38.3326ZM28.3667 38.3326H31.4333V40.6326H28.3667V38.3326ZM31.4333 36.7993H28.3667V33.7326H31.4333V36.7993ZM12.384 27.906C10.2411 20.4693 11.1236 15.5887 12.0006 13.0947C13.4724 13.2253 14.9194 13.5563 16.3016 14.0784C14.9907 19.8621 15.5775 25.9142 17.9753 31.3383C15.8859 30.6106 13.9785 29.4397 12.384 27.906ZM5.36665 42.166H8.43332V44.466H5.36665V42.166ZM9.96665 42.166H13.0333V44.466H9.96665V42.166ZM14.5667 42.166H17.6333V44.466H14.5667V42.166ZM19.1667 42.166H22.2333V44.466H19.1667V42.166ZM23.7667 42.166H26.8333V44.466H23.7667V42.166ZM28.3667 42.166H31.4333V44.466H28.3667V42.166ZM32.9667 42.166H36.0333V44.466H32.9667V42.166ZM37.5667 42.166H40.6333V44.466H37.5667V42.166ZM40.6333 36.7993H37.5667V33.7326H40.6333V36.7993ZM34.9255 7.2489C34.6805 7.86496 34.3989 8.46582 34.0822 9.04827C30.3723 4.83316 25.1316 2.27551 19.5262 1.94434C25.2533 0.584041 31.2511 2.65011 34.9255 7.2489ZM15.3786 3.57964C22.1082 2.6795 28.8349 5.25556 33.2419 10.4206C32.3217 11.7715 31.1939 12.9685 29.9 13.9672C24.6453 6.63174 15.3471 6.45387 11.5322 6.7245C12.6359 5.47525 13.9349 4.41318 15.3786 3.57964ZM8.11362 13.2565C8.87047 13.1295 9.6356 13.058 10.4029 13.0426C9.64542 15.4346 9.00065 19.4726 10.1438 25.1935C7.83231 21.6716 7.0964 17.3445 8.11362 13.2565ZM1.53332 29.8993C1.53332 29.4759 1.87657 29.1326 2.29998 29.1326H11.4417C12.7799 30.3951 14.3149 31.431 15.9865 32.1993H1.53332V29.8993ZM1.53332 33.7326H3.83332V44.466H1.53332V33.7326ZM44.4667 44.466H42.1666V33.7326H44.4667V44.466Z" fill="#026D69"/>
</svg>
