<svg width="49" height="81" viewBox="0 0 49 81" fill="none" xmlns="http://www.w3.org/2000/svg">
<path d="M30.5388 11.9136C30.5388 15.916 33.8183 19.1606 37.8637 19.1606C41.9092 19.1606 45.1886 15.916 45.1886 11.9136C45.1886 7.91112 41.9092 4.6665 37.8637 4.6665C33.8183 4.6665 30.5388 7.91112 30.5388 11.9136Z" fill="white"/>
<path d="M30.5388 11.9136C30.5388 15.916 33.8183 19.1606 37.8637 19.1606C41.9092 19.1606 45.1886 15.916 45.1886 11.9136C45.1886 7.91112 41.9092 4.6665 37.8637 4.6665C33.8183 4.6665 30.5388 7.91112 30.5388 11.9136Z" fill="#E19D4E"/>
<path d="M23.5037 24.7088L9.71563 54.1233L0.667047 73.5199C0.667047 73.5199 -1.20011 77.2856 1.31333 78.7775C3.82677 80.2695 5.6941 77.7828 5.6941 77.7828L16.0861 57.5274C17.5418 55.5847 18.4259 53.0941 20.4876 53.4128C22.5492 53.7315 22.5066 55.8479 23.5037 57.5274L30.0385 74.7988C30.0385 74.7988 31.8342 81.5484 35.7119 79.8433C39.5896 78.1382 36.5735 73.1646 36.5735 73.1646L28.8179 53.4128L38.2971 33.3769C38.2971 33.3769 44.2785 42.0512 44.0422 43.1817C43.8058 44.3122 36.5735 48.5104 36.5735 48.5104C36.5735 48.5104 32.7674 50.9972 34.4909 52.5602C36.2144 54.1233 38.7278 52.5602 38.7278 52.5602L46.1246 47.871C46.1246 47.871 48.1353 46.6631 48.8534 43.5369C49.5716 40.4108 47.4172 36.3609 47.4172 36.3609C47.4172 36.3609 44.1138 29.5402 40.595 26.2719C38.3688 24.2042 30.5415 22.5836 28.8179 20.8721C27.0942 19.1607 25.6902 18.1467 25.0836 15.7566C24.2239 12.3692 27.0942 6.73326 27.0942 6.73326C27.0942 6.73326 28.7901 4.05318 28.1714 2.39923C27.5444 0.723324 26.8841 0.267509 25.0836 0.12565C22.2629 -0.0965849 20.4876 5.66752 20.4876 5.66752C19.9131 8.03584 17.0324 13.4429 18.5484 17.3907C19.9127 20.9432 21.5887 22.9089 23.5037 24.7088Z" fill="url(#paint0_linear)"/>
<defs>
<linearGradient id="paint0_linear" x1="22.05" y1="47.4663" x2="22.05" y2="47.4663" gradientUnits="userSpaceOnUse">
<stop stop-color="#E19D4E"/>
<stop stop-color="#4EDCE1"/>
</linearGradient>
</defs>
</svg>
