<svg width="79" height="80" viewBox="0 0 79 80" fill="none" xmlns="http://www.w3.org/2000/svg">
<g clip-path="url(#clip0)">
<path d="M68.1236 61.2197C67.2719 61.2197 66.5808 61.911 66.5808 62.7625C66.5808 63.6141 67.2721 64.3053 68.1236 64.3053C68.9769 64.3053 69.6664 63.6141 69.6664 62.7625C69.6664 61.911 68.9769 61.2197 68.1236 61.2197Z" fill="#E19D4E"/>
<path d="M78.9255 47.3477C78.9255 41.3053 75.4981 36.8561 69.7573 35.4458C62.2362 33.5981 52.6411 37.3327 47.7198 45.3829C45.6719 44.6297 43.5632 44.248 41.4333 44.248C38.2509 44.248 33.8427 45.1107 30.3908 46.9687C30.2201 44.9123 29.9743 43.2557 29.7754 41.8147C29.012 36.4884 31.2942 32.7274 31.38 32.4636C33.8803 34.1027 36.8206 34.9908 39.8394 34.9908C48.3469 34.9908 55.2682 28.0695 55.2682 19.5621C55.2682 11.0546 48.3469 4.1333 39.8394 4.1333C32.1721 4.1333 25.7086 9.74045 24.5852 17.2603C15.9535 26.3051 8.5812 36.4738 2.66963 47.4933C0.102434 52.2819 -0.844795 54.9582 0.859414 60.4891C1.59032 62.8601 2.62364 64.3999 4.01849 65.196C15.5121 71.7636 30.0495 75.1055 42.9271 75.1055C50.664 75.1055 59.2264 74.638 69.4066 71.2456C80.4783 67.5396 78.9255 56.3824 78.9255 47.3477ZM39.8396 7.21893C46.6455 7.21893 52.1826 12.756 52.1826 19.5619C52.1826 26.3678 46.6455 31.9049 39.8396 31.9049C33.0228 31.9049 27.4966 26.3758 27.4966 19.5619C27.4966 12.7333 33.015 7.21893 39.8396 7.21893ZM68.4289 68.3191C59.2113 71.3907 51.5677 72.0201 42.9269 72.0201C29.9356 72.0201 15.9626 68.4675 5.54865 62.5168C4.89474 62.1435 4.27663 61.1008 3.80818 59.5806C2.42861 55.1026 3.1049 53.2122 5.38895 48.9519C10.6497 39.1456 17.0965 30.0305 24.5753 21.8031C25.0542 25.0729 26.5718 28.1096 28.9226 30.4637L28.431 31.4713C25.6639 37.1312 26.7315 42.07 26.7318 42.3221C27.0757 44.7092 27.4014 47.2637 27.4554 49.7723C27.4974 51.6549 27.3851 53.292 27.1116 54.7769C26.9376 55.7232 27.6639 56.5993 28.6307 56.5993C29.3607 56.5993 30.0096 56.079 30.1463 55.3353C30.4185 53.8564 30.5512 52.2643 30.5494 50.4907C33.4355 48.4369 38.1905 47.3339 41.4333 47.3339C44.5973 47.3339 47.6495 48.3673 50.3224 50.1585C51.0303 50.6328 51.9886 50.4436 52.4629 49.7357C52.9374 49.0278 52.7481 48.0695 52.0401 47.5952C51.552 47.2679 51.0513 46.9621 50.5422 46.6794C54.9551 39.733 63.181 37.0078 69.021 38.4426C71.5675 39.0681 75.8395 41.0568 75.8395 47.3478C75.8395 56.6319 77.2172 65.3774 68.4289 68.3191Z" fill="#E19D4E"/>
<path d="M63.9758 64.8728C63.7601 64.0482 62.917 63.5548 62.0926 63.7707C55.1142 65.5963 48.7564 65.848 42.9256 65.848C40.8143 65.848 38.4344 65.746 36.5593 65.575C35.7093 65.4968 34.96 66.1229 34.8827 66.9714C34.8054 67.82 35.4306 68.5707 36.2791 68.648C38.2417 68.827 40.7262 68.9337 42.9254 68.9337C48.6731 68.9337 55.5379 68.675 62.8735 66.7558C63.6981 66.5404 64.1915 65.6974 63.9758 64.8728Z" fill="#E19D4E"/>
<path d="M39.8396 10.3047C34.7352 10.3047 30.5824 14.4574 30.5824 19.562C30.5824 24.6665 34.7352 28.8192 39.8396 28.8192C44.9441 28.8192 49.0968 24.6665 49.0968 19.562C49.0968 14.4576 44.9441 10.3047 39.8396 10.3047ZM39.8396 25.7335C36.4366 25.7335 33.6681 22.9649 33.6681 19.5619C33.6681 16.1589 36.4366 13.3903 39.8396 13.3903C43.2426 13.3903 46.0112 16.1589 46.0112 19.5619C46.0112 22.9649 43.2426 25.7335 39.8396 25.7335Z" fill="#4EDCE1"/>
</g>
<defs>
<clipPath id="clip0">
<rect width="79" height="79" fill="white" transform="translate(0 0.119385)"/>
</clipPath>
</defs>
</svg>
