<svg width="87" height="88" viewBox="0 0 87 88" fill="none" xmlns="http://www.w3.org/2000/svg">
<g clip-path="url(#clip0)">
<path d="M47.846 16.0278C52.239 16.0278 55.8002 12.4666 55.8002 8.07359C55.8002 3.68061 52.239 0.119385 47.846 0.119385C43.453 0.119385 39.8918 3.68061 39.8918 8.07359C39.8918 12.4666 43.453 16.0278 47.846 16.0278Z" fill="#4EDCE1"/>
<path d="M36.8437 21.8794C37.1388 19.8607 38.7048 18.6467 39.8483 18.9653L48.1479 21.2791C49.288 21.6044 49.6804 24.2536 49.3585 25.4038L42.5209 53.4783C42.1856 54.6318 41.4982 55.2019 40.3547 54.8733L34.7478 53.6593C30.2308 49.9404 30.2576 46.7044 31.1832 42.2377L36.8437 21.8794Z" fill="#E19D4E"/>
<path d="M29.7244 54.1389L28.3026 64.0817C28.3026 64.0817 24.644 72.7703 22.129 77.8741C20.2276 81.7406 19.3323 84.5272 20.6401 85.2247C22.6454 86.2911 25.3415 83.9001 28.1651 79.4971C32.9 72.113 35.3379 68.4209 36.2501 66.6269L37.682 61.9389C37.682 61.9422 30.6499 57.2877 29.7244 54.1389Z" fill="#E19D4E"/>
<path d="M54.8545 58.2535L43.7783 47.2544C42.0312 45.4939 39.4223 46.3222 37.655 48.0726C35.8911 49.8097 32.4372 51.4528 34.1776 53.2234L48.2651 65.0843L46.7058 80.2818C46.5918 84.0309 46.8131 86.2039 49.194 86.452C51.4173 86.6834 52.3965 82.0591 52.6278 80.8888C52.6278 80.8888 55.4749 66.3317 55.8203 64.2795C56.1657 62.2239 56.3736 59.8061 54.8545 58.2535Z" fill="#E19D4E"/>
<path d="M68.248 25.6419L59.8981 29.5687L49.3786 21.8895C47.7086 20.6789 45.3646 21.0545 44.1506 22.7346C42.9401 24.4079 43.3157 26.7452 44.9957 27.9625L56.3402 36.1782C57.4065 36.9462 59.0463 37.3486 60.2468 36.8288C60.2468 36.8288 68.0367 32.0972 70.1259 30.7357C72.3157 29.3005 74.606 27.4159 73.761 25.8331C72.5604 23.5595 70.374 24.6158 68.248 25.6419Z" fill="#E19D4E"/>
<path d="M67.9661 21.4905V85.2046" stroke="#4EDCE1" stroke-width="1.1418" stroke-miterlimit="10" stroke-linecap="round" stroke-linejoin="round"/>
<path d="M32.9335 21.5507C32.9335 21.5507 27.9571 36.9964 27.2026 39.4511C26.4481 41.9057 23.8157 43.6093 20.0968 42.4758C16.3779 41.339 12.5181 39.7797 13.1218 35.4337C13.7824 30.6988 18.2558 24.4112 22.1356 20.367C26.0155 16.3262 34.8751 14.9211 32.9335 21.5507Z" fill="#4EDCE1"/>
</g>
<defs>
<clipPath id="clip0">
<rect width="87" height="87" fill="white" transform="translate(0 0.119385)"/>
</clipPath>
</defs>
</svg>
