<svg width="46" height="46" viewBox="0 0 46 46" fill="none" xmlns="http://www.w3.org/2000/svg">
<g clip-path="url(#clip0)">
<path d="M45.5415 23.1759C45.5415 10.7353 35.4587 0.652475 23.0181 0.652475C10.5775 0.652475 0.494751 10.7353 0.494751 23.1759C0.494751 34.42 8.72986 43.7373 19.4989 45.4265V29.6865H13.78V23.1759H19.4989V18.2137C19.4989 12.5696 22.8598 9.45067 28.0067 9.45067C30.4702 9.45067 33.0481 9.89058 33.0481 9.89058V15.4334H30.2063C27.4084 15.4334 26.5374 17.1711 26.5374 18.9527V23.1759H32.7841L31.7855 29.6865H26.5374V45.4265C37.3064 43.7373 45.5415 34.42 45.5415 23.1759Z" fill="#1877F2"/>
<path d="M31.7856 29.6865L32.7841 23.1759H26.5375V18.9527C26.5375 17.1711 27.4085 15.4334 30.2063 15.4334H33.0481V9.89058C33.0481 9.89058 30.4702 9.45067 28.0067 9.45067C22.8599 9.45067 19.4989 12.5696 19.4989 18.2137V23.1759H13.78V29.6865H19.4989V45.4265C20.647 45.6069 21.8216 45.6992 23.0182 45.6992C24.2147 45.6992 25.3893 45.6069 26.5375 45.4265V29.6865H31.7856Z" fill="white"/>
</g>
<defs>
<clipPath id="clip0">
<rect width="45.0468" height="45.0468" fill="white" transform="translate(0.494751 0.652475)"/>
</clipPath>
</defs>
</svg>
