<svg width="46" height="46" viewBox="0 0 46 46" fill="none" xmlns="http://www.w3.org/2000/svg">
<path d="M23.3132 9.15023C27.6289 9.15023 30.5401 10.9581 32.2001 12.4686L38.6864 6.32727C34.7026 2.73648 29.5186 0.532623 23.3132 0.532623C14.3244 0.532623 6.56124 5.53479 2.78186 12.8152L10.2129 18.4118C12.0772 13.038 17.2355 9.15023 23.3132 9.15023Z" fill="#EA4335"/>
<path d="M45.377 23.315C45.377 21.4825 45.2238 20.1453 44.8917 18.7585H23.3132V27.0294H35.9795C35.7241 29.0847 34.3451 32.1803 31.2806 34.2602L38.5331 39.7083C42.8745 35.8203 45.377 30.1001 45.377 23.315Z" fill="#4285F4"/>
<path d="M10.2385 27.2276C9.75323 25.8409 9.47235 24.3549 9.47235 22.8197C9.47235 21.2842 9.75323 19.7985 10.2129 18.4118L2.78165 12.8152C1.22411 15.8363 0.3302 19.2289 0.3302 22.8197C0.3302 26.4103 1.22411 29.803 2.78165 32.824L10.2385 27.2276Z" fill="#FBBC05"/>
<path d="M23.3133 45.1068C29.5187 45.1068 34.7281 43.1258 38.5331 39.7084L31.2807 34.2605C29.3399 35.5728 26.7351 36.4892 23.3133 36.4892C17.2356 36.4892 12.0773 32.6011 10.2386 27.2276L2.80737 32.824C6.58675 40.1046 14.3243 45.1068 23.3133 45.1068Z" fill="#34A853"/>
</svg>
