<svg width="46" height="46" viewBox="0 0 46 46" fill="none" xmlns="http://www.w3.org/2000/svg">
<g clip-path="url(#clip0)">
<path d="M22.6892 45.1931C10.2517 45.1931 0.165771 35.1071 0.165771 22.6697C0.165771 10.2323 10.2517 0.146332 22.6892 0.146332C35.1266 0.146332 45.2125 10.2323 45.2125 22.6697C45.2125 35.1071 35.1266 45.1931 22.6892 45.1931Z" fill="url(#paint0_linear)"/>
<path d="M22.6891 10.0656C26.7929 10.0656 27.2794 10.0791 28.9011 10.1557C30.4012 10.2233 31.2165 10.4756 31.7571 10.6873C32.4733 10.9666 32.9868 11.2999 33.5229 11.836C34.059 12.372 34.3923 12.8856 34.6716 13.6018C34.8833 14.1424 35.1311 14.9577 35.2031 16.4578C35.2752 18.0794 35.2932 18.566 35.2932 22.6697C35.2932 26.7735 35.2797 27.26 35.2031 28.8817C35.1356 30.3817 34.8833 31.1971 34.6716 31.7376C34.3923 32.4539 34.059 32.9674 33.5229 33.5035C32.9868 34.0395 32.4733 34.3729 31.7571 34.6522C31.2165 34.8639 30.4012 35.1116 28.9011 35.1837C27.2794 35.2558 26.7929 35.2738 22.6891 35.2738C18.5854 35.2738 18.0989 35.2603 16.4772 35.1837C14.9771 35.1161 14.1618 34.8639 13.6212 34.6522C12.905 34.3729 12.3915 34.0395 11.8554 33.5035C11.3193 32.9674 10.986 32.4539 10.7067 31.7376C10.495 31.1971 10.2472 30.3817 10.1752 28.8817C10.1031 27.26 10.0851 26.7735 10.0851 22.6697C10.0851 18.566 10.0986 18.0794 10.1752 16.4578C10.2427 14.9577 10.495 14.1424 10.7067 13.6018C10.986 12.8856 11.3193 12.372 11.8554 11.836C12.3915 11.2999 12.905 10.9666 13.6212 10.6873C14.1618 10.4756 14.9771 10.2278 16.4772 10.1557C18.0989 10.0791 18.5854 10.0656 22.6891 10.0656ZM22.6891 7.29525C18.5133 7.29525 17.9908 7.31327 16.3511 7.38985C14.7159 7.46643 13.5987 7.7232 12.6167 8.1061C11.6076 8.4935 10.7472 9.02054 9.89586 9.87643C9.03998 10.7323 8.51743 11.5882 8.12102 12.6018C7.74263 13.5793 7.48136 14.6964 7.40478 16.3361C7.3282 17.9758 7.31018 18.4984 7.31018 22.6742C7.31018 26.8501 7.3282 27.3726 7.40478 29.0123C7.48136 30.6475 7.73812 31.7647 8.12102 32.7467C8.51293 33.7512 9.03998 34.6116 9.89586 35.463C10.7518 36.3189 11.6076 36.8414 12.6212 37.2378C13.5987 37.6162 14.7159 37.8775 16.3556 37.9541C17.9953 38.0307 18.5178 38.0487 22.6937 38.0487C26.8695 38.0487 27.392 38.0307 29.0317 37.9541C30.6669 37.8775 31.7841 37.6207 32.7661 37.2378C33.7706 36.8459 34.631 36.3189 35.4824 35.463C36.3383 34.6071 36.8609 33.7512 37.2573 32.7377C37.6357 31.7601 37.8969 30.643 37.9735 29.0033C38.0501 27.3636 38.0681 26.841 38.0681 22.6652C38.0681 18.4894 38.0501 17.9668 37.9735 16.3271C37.8969 14.6919 37.6402 13.5748 37.2573 12.5928C36.8654 11.5882 36.3383 10.7278 35.4824 9.87643C34.6265 9.02054 33.7707 8.498 32.7571 8.10159C31.7796 7.7232 30.6624 7.46193 29.0227 7.38535C27.3875 7.31327 26.865 7.29525 22.6891 7.29525Z" fill="white"/>
<path d="M22.6892 14.773C18.3287 14.773 14.7925 18.3092 14.7925 22.6697C14.7925 27.0302 18.3287 30.5664 22.6892 30.5664C27.0497 30.5664 30.5859 27.0302 30.5859 22.6697C30.5859 18.3092 27.0497 14.773 22.6892 14.773ZM22.6892 27.796C19.8602 27.796 17.5629 25.5032 17.5629 22.6697C17.5629 19.8363 19.8602 17.5434 22.6892 17.5434C25.5181 17.5434 27.8155 19.8363 27.8155 22.6697C27.8155 25.5032 25.5181 27.796 22.6892 27.796Z" fill="white"/>
<path d="M30.8967 16.3091C31.9167 16.3091 32.7436 15.4822 32.7436 14.4622C32.7436 13.4422 31.9167 12.6153 30.8967 12.6153C29.8767 12.6153 29.0498 13.4422 29.0498 14.4622C29.0498 15.4822 29.8767 16.3091 30.8967 16.3091Z" fill="white"/>
</g>
<defs>
<linearGradient id="paint0_linear" x1="6.76271" y1="38.5962" x2="38.6156" y2="6.74327" gradientUnits="userSpaceOnUse">
<stop stop-color="#FFD521"/>
<stop offset="0.0551048" stop-color="#FFD020"/>
<stop offset="0.1241" stop-color="#FEC01E"/>
<stop offset="0.2004" stop-color="#FCA71B"/>
<stop offset="0.2821" stop-color="#FA8316"/>
<stop offset="0.3681" stop-color="#F85510"/>
<stop offset="0.4563" stop-color="#F51E09"/>
<stop offset="0.5" stop-color="#F30005"/>
<stop offset="0.5035" stop-color="#F20007"/>
<stop offset="0.5966" stop-color="#E1003B"/>
<stop offset="0.6879" stop-color="#D30067"/>
<stop offset="0.7757" stop-color="#C70088"/>
<stop offset="0.8589" stop-color="#BF00A0"/>
<stop offset="0.9357" stop-color="#BB00AF"/>
<stop offset="1" stop-color="#B900B4"/>
</linearGradient>
<clipPath id="clip0">
<rect width="45.0468" height="45.0468" fill="white" transform="translate(0.165771 0.146332)"/>
</clipPath>
</defs>
</svg>
