<svg width="347" height="86" viewBox="0 0 347 86" fill="none" xmlns="http://www.w3.org/2000/svg">
<g filter="url(#filter0_d)">
<circle cx="43" cy="39" r="31" fill="white" stroke="black" stroke-width="16"/>
<circle cx="43" cy="39" r="9.32609" fill="#ED1C24"/>
</g>
<path d="M127.007 11.0506C129.647 11.0506 132.02 11.4506 134.127 12.2506C136.233 13.0506 137.9 14.2373 139.127 15.8106C140.38 17.3573 141.007 19.2506 141.007 21.4906H132.567C132.567 20.344 132.06 19.424 131.047 18.7306C130.033 18.0106 128.807 17.6506 127.367 17.6506C125.287 17.6506 123.713 18.2106 122.647 19.3306C121.58 20.424 121.047 21.984 121.047 24.0106V26.5706C121.047 28.5973 121.58 30.1706 122.647 31.2906C123.713 32.384 125.287 32.9306 127.367 32.9306C128.807 32.9306 130.033 32.5973 131.047 31.9306C132.06 31.2373 132.567 30.3573 132.567 29.2906H126.327V23.6906H141.007V39.0506H136.447L135.567 36.3306C133.06 38.464 129.78 39.5306 125.727 39.5306C121.167 39.5306 117.74 38.344 115.447 35.9706C113.153 33.5706 112.007 30.0106 112.007 25.2906C112.007 20.624 113.3 17.0906 115.887 14.6906C118.5 12.264 122.207 11.0506 127.007 11.0506ZM146.887 39.0506V11.5306H155.727V39.0506H146.887ZM173.954 11.5306C183.581 11.5306 188.394 16.1173 188.394 25.2906C188.394 34.464 183.581 39.0506 173.954 39.0506H162.034V11.5306H173.954ZM170.874 32.4506H173.794C177.501 32.4506 179.354 30.464 179.354 26.4906V24.0906C179.354 20.1173 177.501 18.1306 173.794 18.1306H170.874V32.4506ZM205.087 11.5306C214.713 11.5306 219.527 16.1173 219.527 25.2906C219.527 34.464 214.713 39.0506 205.087 39.0506H193.167V11.5306H205.087ZM202.007 32.4506H204.927C208.633 32.4506 210.487 30.464 210.487 26.4906V24.0906C210.487 20.1173 208.633 18.1306 204.927 18.1306H202.007V32.4506Z" fill="#026D69"/>
<path d="M118.165 63.6338C121.534 63.6338 123.219 65.2391 123.219 68.4498C123.219 71.6605 121.534 73.2658 118.165 73.2658H113.993V63.6338H118.165ZM117.087 70.9558H118.109C119.406 70.9558 120.055 70.2605 120.055 68.8698V68.0298C120.055 66.6391 119.406 65.9438 118.109 65.9438H117.087V70.9558ZM124.889 63.6338H133.219V65.9438H127.983V67.2738H132.463V69.4858H127.983V70.9558H133.317V73.2658H124.889V63.6338ZM140.537 66.0978V73.2658H137.443V66.0978H134.279V63.6338H143.687V66.0978H140.537ZM149.758 63.6338H158.088V65.9438H152.852V67.2738H157.332V69.4858H152.852V70.9558H158.186V73.2658H149.758V63.6338ZM169.004 66.5878C169.004 67.1758 168.845 67.7078 168.528 68.1838C168.211 68.6598 167.749 69.0098 167.142 69.2338L169.284 73.2658H165.812L164.104 69.7518H162.956V73.2658H159.862V63.6338H165.756C166.447 63.6338 167.035 63.7691 167.52 64.0398C168.015 64.3011 168.383 64.6605 168.626 65.1178C168.878 65.5658 169.004 66.0558 169.004 66.5878ZM165.854 66.7138C165.854 66.4618 165.77 66.2518 165.602 66.0838C165.434 65.9158 165.229 65.8318 164.986 65.8318H162.956V67.6098H164.986C165.229 67.6098 165.434 67.5258 165.602 67.3578C165.77 67.1805 165.854 66.9658 165.854 66.7138ZM181.832 63.6338C182.318 63.6338 182.761 63.7365 183.162 63.9418C183.573 64.1378 183.895 64.4178 184.128 64.7818C184.371 65.1458 184.492 65.5518 184.492 65.9998C184.492 67.1851 183.956 67.9318 182.882 68.2398V68.2958C184.105 68.5758 184.716 69.3785 184.716 70.7038C184.716 71.2078 184.59 71.6558 184.338 72.0478C184.096 72.4305 183.76 72.7291 183.33 72.9438C182.901 73.1585 182.43 73.2658 181.916 73.2658H175.42V63.6338H181.832ZM178.514 67.3858H180.642C180.848 67.3858 181.016 67.3158 181.146 67.1758C181.286 67.0265 181.356 66.8445 181.356 66.6298V66.4898C181.356 66.2845 181.286 66.1118 181.146 65.9718C181.006 65.8225 180.838 65.7478 180.642 65.7478H178.514V67.3858ZM178.514 71.0258H180.866C181.072 71.0258 181.24 70.9558 181.37 70.8158C181.51 70.6665 181.58 70.4845 181.58 70.2698V70.1298C181.58 69.9151 181.51 69.7378 181.37 69.5978C181.24 69.4485 181.072 69.3738 180.866 69.3738H178.514V71.0258ZM192.539 73.2658L192.133 71.9078H188.759L188.353 73.2658H185.189L188.703 63.6338H192.301L195.815 73.2658H192.539ZM189.403 69.7518H191.489L190.481 66.3218H190.425L189.403 69.7518ZM206.123 66.5878C206.123 67.1758 205.964 67.7078 205.647 68.1838C205.33 68.6598 204.868 69.0098 204.261 69.2338L206.403 73.2658H202.931L201.223 69.7518H200.075V73.2658H196.981V63.6338H202.875C203.566 63.6338 204.154 63.7691 204.639 64.0398C205.134 64.3011 205.502 64.6605 205.745 65.1178C205.997 65.5658 206.123 66.0558 206.123 66.5878ZM202.973 66.7138C202.973 66.4618 202.889 66.2518 202.721 66.0838C202.553 65.9158 202.348 65.8318 202.105 65.8318H200.075V67.6098H202.105C202.348 67.6098 202.553 67.5258 202.721 67.3578C202.889 67.1805 202.973 66.9658 202.973 66.7138ZM207.877 63.6338H216.207V65.9438H210.971V67.2738H215.451V69.4858H210.971V70.9558H216.305V73.2658H207.877V63.6338ZM227.053 59.9098C227.473 59.9098 227.832 60.0591 228.131 60.3578C228.43 60.6565 228.579 61.0158 228.579 61.4358C228.579 61.8465 228.43 62.2011 228.131 62.4998C227.832 62.7985 227.473 62.9478 227.053 62.9478C226.633 62.9478 226.274 62.8031 225.975 62.5138C225.676 62.2151 225.527 61.8558 225.527 61.4358C225.527 61.0158 225.676 60.6565 225.975 60.3578C226.274 60.0591 226.633 59.9098 227.053 59.9098ZM227.053 60.8758C226.885 60.8758 226.75 60.9318 226.647 61.0438C226.544 61.1465 226.493 61.2818 226.493 61.4498C226.493 61.6085 226.544 61.7391 226.647 61.8418C226.759 61.9445 226.894 61.9958 227.053 61.9958C227.221 61.9958 227.356 61.9445 227.459 61.8418C227.562 61.7298 227.613 61.5898 227.613 61.4218C227.613 61.2631 227.557 61.1325 227.445 61.0298C227.342 60.9271 227.212 60.8758 227.053 60.8758ZM229.097 73.2658L228.691 71.9078H225.317L224.911 73.2658H221.747L225.261 63.6338H228.859L232.373 73.2658H229.097ZM225.961 69.7518H228.047L227.039 66.3218H226.983L225.961 69.7518ZM243.046 63.4658C243.97 63.4658 244.8 63.6058 245.538 63.8858C246.275 64.1658 246.858 64.5811 247.288 65.1318C247.726 65.6731 247.946 66.3358 247.946 67.1198H244.992C244.992 66.7185 244.814 66.3965 244.46 66.1538C244.105 65.9018 243.676 65.7758 243.172 65.7758C242.444 65.7758 241.893 65.9718 241.52 66.3638C241.146 66.7465 240.96 67.2925 240.96 68.0018V68.8978C240.96 69.6071 241.146 70.1578 241.52 70.5498C241.893 70.9325 242.444 71.1238 243.172 71.1238C243.676 71.1238 244.105 71.0071 244.46 70.7738C244.814 70.5311 244.992 70.2231 244.992 69.8498H242.808V67.8898H247.946V73.2658H246.35L246.042 72.3138C245.164 73.0605 244.016 73.4338 242.598 73.4338C241.002 73.4338 239.802 73.0185 239 72.1878C238.197 71.3478 237.796 70.1018 237.796 68.4498C237.796 66.8165 238.248 65.5798 239.154 64.7398C240.068 63.8905 241.366 63.4658 243.046 63.4658ZM250.004 73.2658V63.6338H253.098V73.2658H250.004ZM259.477 63.6338C262.847 63.6338 264.531 65.2391 264.531 68.4498C264.531 71.6605 262.847 73.2658 259.477 73.2658H255.305V63.6338H259.477ZM258.399 70.9558H259.421C260.719 70.9558 261.367 70.2605 261.367 68.8698V68.0298C261.367 66.6391 260.719 65.9438 259.421 65.9438H258.399V70.9558ZM270.374 63.6338C273.743 63.6338 275.428 65.2391 275.428 68.4498C275.428 71.6605 273.743 73.2658 270.374 73.2658H266.202V63.6338H270.374ZM269.296 70.9558H270.318C271.615 70.9558 272.264 70.2605 272.264 68.8698V68.0298C272.264 66.6391 271.615 65.9438 270.318 65.9438H269.296V70.9558ZM277.098 63.6338H285.428V65.9438H280.192V67.2738H284.672V69.4858H280.192V70.9558H285.526V73.2658H277.098V63.6338Z" fill="#026D69"/>
<defs>
<filter id="filter0_d" x="0" y="0" width="86" height="86" filterUnits="userSpaceOnUse" color-interpolation-filters="sRGB">
<feFlood flood-opacity="0" result="BackgroundImageFix"/>
<feColorMatrix in="SourceAlpha" type="matrix" values="0 0 0 0 0 0 0 0 0 0 0 0 0 0 0 0 0 0 127 0"/>
<feOffset dy="4"/>
<feGaussianBlur stdDeviation="2"/>
<feColorMatrix type="matrix" values="0 0 0 0 0 0 0 0 0 0 0 0 0 0 0 0 0 0 0.25 0"/>
<feBlend mode="normal" in2="BackgroundImageFix" result="effect1_dropShadow"/>
<feBlend mode="normal" in="SourceGraphic" in2="effect1_dropShadow" result="shape"/>
</filter>
</defs>
</svg>
