<svg width="29" height="29" viewBox="0 0 29 29" fill="none" xmlns="http://www.w3.org/2000/svg">
<path d="M26.5833 22.9583H19.3333V18.125H16.095C14.7175 21.0492 11.745 22.9583 8.45833 22.9583C3.79417 22.9583 0 19.1642 0 14.5C0 9.83582 3.79417 6.04166 8.45833 6.04166C11.745 6.04166 14.7054 7.95082 16.095 10.875H29V18.125H26.5833V22.9583ZM21.75 20.5417H24.1667V15.7083H26.5833V13.2917H14.4275L14.1496 12.4821C13.3038 10.0775 11.0079 8.45832 8.45833 8.45832C5.12333 8.45832 2.41667 11.165 2.41667 14.5C2.41667 17.835 5.12333 20.5417 8.45833 20.5417C11.0079 20.5417 13.3038 18.9225 14.1496 16.5179L14.4275 15.7083H21.75V20.5417ZM8.45833 18.125C6.46458 18.125 4.83333 16.4937 4.83333 14.5C4.83333 12.5062 6.46458 10.875 8.45833 10.875C10.4521 10.875 12.0833 12.5062 12.0833 14.5C12.0833 16.4937 10.4521 18.125 8.45833 18.125ZM8.45833 13.2917C7.79375 13.2917 7.25 13.8354 7.25 14.5C7.25 15.1646 7.79375 15.7083 8.45833 15.7083C9.12292 15.7083 9.66667 15.1646 9.66667 14.5C9.66667 13.8354 9.12292 13.2917 8.45833 13.2917Z" fill="#00B6AF"/>
</svg>
